<svg aria-hidden="true" style="position: absolute; width: 0; height: 0; overflow: hidden;" version="1.1" xmlns="http://www.w3.org/2000/svg" xmlns:xlink="http://www.w3.org/1999/xlink">
<defs>
<symbol id="icon-icon-face" viewBox="0 0 32 32">
<path fill="#0d6eb7" style="fill: var(--color1, #0d6eb7)" d="M32 16.040c0-8.853-7.168-16.040-16-16.040s-16 7.187-16 16.040c0 7.764 5.504 14.227 12.8 15.72v-10.907h-3.2v-4.813h3.2v-4.009c0-0 0-0.001 0-0.001 0-3.095 2.506-5.606 5.599-5.613h4.001v4.812h-3.2c-0.88 0-1.6 0.721-1.6 1.604v3.208h4.8v4.813h-4.8v11.147c8.080-0.803 14.4-7.635 14.4-15.96z"></path>
</symbol>
<symbol id="icon-icon-in" viewBox="0 0 32 32">
<path fill="#0d6eb7" style="fill: var(--color1, #0d6eb7)" d="M16 0c-8.835 0-16 7.165-16 16s7.165 16 16 16 16-7.165 16-16-7.165-16-16-16zM11.351 24.187h-3.897v-11.721h3.897v11.724zM9.403 10.864h-0.027c-1.307 0-2.152-0.9-2.152-2.024 0-1.151 0.871-2.027 2.204-2.027s2.153 0.876 2.179 2.027c0 1.124-0.845 2.024-2.204 2.024zM25.401 24.189h-3.896v-6.272c0-1.576-0.564-2.652-1.973-2.652-1.077 0-1.719 0.725-2 1.427-0.103 0.249-0.128 0.6-0.128 0.949v6.547h-3.897s0.052-10.623 0-11.723h3.897v1.66c0.517-0.8 1.444-1.935 3.511-1.935 2.564 0 4.487 1.675 4.487 5.276v6.723z"></path>
</symbol>
<symbol id="icon-icon-skype" viewBox="0 0 32 32">
<path fill="#0d6eb7" style="fill: var(--color1, #0d6eb7)" d="M31.048 19.377c2.315-10.401-6.8-19.851-17.501-18.037-5.811-3.605-13.547 0.469-13.547 7.381 0 1.608 0.444 3.112 1.215 4.409-2.151 10.427 7.039 19.74 17.732 17.803 7.56 3.997 15.912-3.973 12.103-11.555zM20.875 25.651c-2.809 1.155-7.429 1.16-10.225-0.303-3.987-2.125-4.695-6.911-1.256-6.911 2.592 0 1.772 3.021 4.389 4.253 1.2 0.556 3.784 0.613 5.285-0.4 1.483-0.992 1.347-2.552 0.54-3.299-2.135-1.971-8.244-1.187-11.037-4.639-1.213-1.497-1.443-4.137 0.049-6.053 2.6-3.345 10.229-3.549 13.511-1.023 3.028 2.344 2.211 5.456-0.233 5.456-2.94 0-1.395-3.847-6.141-3.847-3.44 0-4.793 2.447-2.371 3.637 3.285 1.631 11.655 1.087 11.655 7.461-0.007 2.653-1.633 4.632-4.167 5.665z"></path>
</symbol>
<symbol id="icon-icon-tel" viewBox="0 0 32 32">
<path fill="#0d6eb7" style="fill: var(--color1, #0d6eb7)" d="M16.004 0h-0.008c-8.823 0-15.996 7.176-15.996 16 0 3.5 1.128 6.744 3.045 9.379l-1.992 5.941 6.151-1.965c2.466 1.657 5.503 2.645 8.77 2.645 0.010 0 0.021 0 0.031-0h-0.002c8.821 0 15.996-7.179 15.996-16 0-8.823-7.173-16-15.996-16zM25.313 22.593c-0.385 1.091-1.917 1.995-3.139 2.259-0.837 0.179-1.929 0.32-5.605-1.204-4.701-1.948-7.729-6.727-7.965-7.036-0.227-0.309-1.9-2.529-1.9-4.827 0-2.296 1.167-3.413 1.636-3.893 0.387-0.393 1.024-0.573 1.636-0.573 0.197 0 0.376 0.009 0.536 0.017 0.469 0.020 0.707 0.048 1.016 0.791 0.387 0.929 1.325 3.225 1.439 3.461s0.227 0.556 0.067 0.867c-0.149 0.32-0.281 0.461-0.517 0.733s-0.46 0.48-0.696 0.772c-0.216 0.253-0.46 0.525-0.188 0.996 0.272 0.46 1.212 1.993 2.596 3.227 1.787 1.589 3.235 2.097 3.752 2.313 0.387 0.16 0.847 0.121 1.128-0.177 0.359-0.387 0.8-1.027 1.251-1.657 0.32-0.451 0.724-0.507 1.147-0.347 0.432 0.149 2.719 1.28 3.188 1.513 0.471 0.236 0.78 0.348 0.895 0.547 0.112 0.197 0.112 1.127-0.275 2.219z"></path>
</symbol>
<symbol id="icon-apple" viewBox="0 0 27 32">
<path fill="#fff" style="fill: var(--color1, #fff)" d="M26.594 23.477c-1.032 3.040-4.118 8.423-7.299 8.482-2.109 0.041-2.787-1.272-5.2-1.272-2.41 0-3.164 1.231-5.159 1.311-3.374 0.132-8.583-7.769-8.583-14.661 0-6.329 4.34-9.466 8.131-9.524 2.034-0.037 3.955 1.394 5.195 1.394 1.245 0 3.577-1.72 6.029-1.468 1.026 0.044 3.909 0.42 5.758 3.17-4.908 3.256-4.143 10.066 1.126 12.568zM19.742 0c-3.708 0.152-6.733 4.105-6.311 7.375 3.427 0.27 6.715-3.634 6.311-7.375z"></path>
</symbol>
<symbol id="icon-android" viewBox="0 0 26 32">
<path fill="#fff" style="fill: var(--color1, #fff)" d="M5.248 10.666l0.002 12.592c0 1.148 0.913 2.075 2.042 2.075h0.58v4.722c0 1.072 0.928 1.944 1.981 1.944 1.058 0 1.955-0.872 1.955-1.946v-4.721h2.624v4.722c0 1.072 0.928 1.944 1.982 1.944 1.058 0 1.954-0.872 1.954-1.946v-4.721l0.582-0.002c1.126 0 2.042-0.928 2.042-2.076v-12.59h-15.744zM26.24 12.628c0-1.074-0.912-1.962-1.968-1.962s-1.968 0.89-1.968 1.963v8.141c0 1.075 0.91 1.896 1.968 1.896 1.056 0 1.968-0.82 1.968-1.896v-8.142zM3.936 12.628c0-1.074-0.912-1.962-1.968-1.962s-1.968 0.89-1.968 1.963v8.141c0 1.075 0.91 1.896 1.968 1.896 1.056 0 1.968-0.82 1.968-1.896v-8.142zM16.992 2.878l1.232-2.478c0.090-0.176-0.024-0.4-0.214-0.4-0.095 0.002-0.176 0.058-0.215 0.139l-0.001 0.001-1.245 2.504c-2.009-0.982-4.65-1.082-6.861 0l-1.246-2.504c-0.038-0.082-0.12-0.139-0.215-0.14h-0c-0.189 0-0.303 0.224-0.214 0.4l1.233 2.478c-2.42 1.379-4 3.446-4 6.454h15.744c0-3.008-1.58-5.074-4-6.454zM9.842 6.666c-0.364-0.003-0.658-0.298-0.658-0.662 0-0.001 0-0.003 0-0.004v0c0-0.001 0-0.002 0-0.002 0-0.364 0.294-0.66 0.657-0.664h0c0.362 0 0.654 0.301 0.654 0.666 0 0.368-0.293 0.666-0.654 0.666zM16.398 6.666c-0.362-0.004-0.654-0.298-0.654-0.661 0-0.002 0-0.004 0-0.006v0c0-0.366 0.293-0.666 0.654-0.666 0.364 0.004 0.658 0.3 0.658 0.664 0 0.001 0 0.002 0 0.003v-0c0 0.368-0.295 0.666-0.658 0.666z"></path>
</symbol>
<symbol id="icon-cub" viewBox="0 0 29 32">
<path fill="#fff" style="fill: var(--color1, #fff)" d="M25.274 0l-11.592 3.406-1.716 3.32-3.481-0.028-8.486 9.304 8.486 9.304 3.48-0.029 1.718 3.318 11.59 3.406 3.106-12.706-1.765-3.291 1.765-3.291-3.106-12.711zM12.246 7.26l8.868-2.499-5.090 9.67h-10.182l6.404-7.17zM12.246 24.742l-6.404-7.17h10.182l5.090 9.669-8.868-2.498zM23.595 25.67l-5.092-9.668 5.092-9.67 2.458 9.671-2.458 9.667z"></path>
</symbol>
</defs>
</svg>
